<svg width="17" height="17" viewBox="0 0 17 17" fill="none" xmlns="http://www.w3.org/2000/svg">
<g clip-path="url(#clip0_391_7863)">
<path d="M6.60231 8.90729C6.25356 8.79104 6.25356 8.29856 6.60231 8.18231L8.64937 7.50066C9.09936 7.35062 9.50823 7.09783 9.84355 6.76233C10.1789 6.42682 10.4314 6.01782 10.5812 5.56774L11.2629 3.52174C11.3791 3.17299 11.8716 3.17299 11.9879 3.52174L12.6695 5.5688C12.8195 6.01879 13.0723 6.42766 13.4078 6.76298C13.7433 7.0983 14.1524 7.35087 14.6024 7.50066L16.6484 8.18231C16.7248 8.20737 16.7913 8.25591 16.8384 8.32101C16.8856 8.3861 16.911 8.46442 16.911 8.5448C16.911 8.62517 16.8856 8.7035 16.8384 8.76859C16.7913 8.83368 16.7248 8.88222 16.6484 8.90729L14.6014 9.58894C14.1515 9.73887 13.7427 9.9915 13.4074 10.3268C13.0721 10.6621 12.8194 11.0709 12.6695 11.5208L11.9879 13.5679C11.9628 13.6442 11.9143 13.7107 11.8492 13.7579C11.7841 13.805 11.7057 13.8304 11.6254 13.8304C11.545 13.8304 11.4667 13.805 11.4016 13.7579C11.3365 13.7107 11.2879 13.6442 11.2629 13.5679L10.5812 11.5208C10.4313 11.0709 10.1787 10.6621 9.84336 10.3268C9.50804 9.9915 9.09925 9.73887 8.64937 9.58894L6.60231 8.90729ZM1.2136 12.9898C1.16783 12.9746 1.12801 12.9454 1.09978 12.9063C1.07155 12.8673 1.05636 12.8203 1.05636 12.7721C1.05636 12.7239 1.07155 12.6769 1.09978 12.6378C1.12801 12.5987 1.16783 12.5695 1.2136 12.5544L2.44162 12.1454C2.98905 11.9626 3.41812 11.5335 3.60095 10.986L4.00994 9.75803C4.02509 9.71226 4.05429 9.67243 4.09337 9.64421C4.13245 9.61598 4.17943 9.60079 4.22764 9.60079C4.27585 9.60079 4.32284 9.61598 4.36192 9.64421C4.401 9.67243 4.43019 9.71226 4.44535 9.75803L4.85434 10.986C4.94429 11.256 5.09589 11.5014 5.29712 11.7026C5.49835 11.9038 5.74368 12.0554 6.01367 12.1454L7.24169 12.5544C7.28745 12.5695 7.32728 12.5987 7.35551 12.6378C7.38374 12.6769 7.39893 12.7239 7.39893 12.7721C7.39893 12.8203 7.38374 12.8673 7.35551 12.9063C7.32728 12.9454 7.28745 12.9746 7.24169 12.9898L6.01367 13.3988C5.74368 13.4887 5.49835 13.6403 5.29712 13.8415C5.09589 14.0428 4.94429 14.2881 4.85434 14.5581L4.44535 15.7861C4.43019 15.8319 4.401 15.8717 4.36192 15.8999C4.32284 15.9282 4.27585 15.9434 4.22764 15.9434C4.17943 15.9434 4.13245 15.9282 4.09337 15.8999C4.05429 15.8717 4.02509 15.8319 4.00994 15.7861L3.60095 14.5581C3.511 14.2881 3.3594 14.0428 3.15817 13.8415C2.95694 13.6403 2.71161 13.4887 2.44162 13.3988L1.2136 12.9898ZM0.104995 5.51913C0.0749037 5.5087 0.0488105 5.48915 0.0303433 5.4632C0.0118761 5.43725 0.00195266 5.40619 0.00195266 5.37435C0.00195266 5.3425 0.0118761 5.31144 0.0303433 5.28549C0.0488105 5.25954 0.0749037 5.23999 0.104995 5.22956L0.922972 4.9569C1.28863 4.83537 1.57503 4.54897 1.69656 4.18331L1.96922 3.36533C1.97965 3.33524 1.9992 3.30915 2.02515 3.29068C2.0511 3.27221 2.08216 3.26229 2.11401 3.26229C2.14586 3.26229 2.17691 3.27221 2.20286 3.29068C2.22881 3.30915 2.24836 3.33524 2.25879 3.36533L2.53145 4.18331C2.5914 4.36351 2.69253 4.52725 2.82681 4.66154C2.9611 4.79583 3.12484 4.89696 3.30504 4.9569L4.12302 5.22956C4.15311 5.23999 4.1792 5.25954 4.19767 5.28549C4.21614 5.31144 4.22606 5.3425 4.22606 5.37435C4.22606 5.40619 4.21614 5.43725 4.19767 5.4632C4.1792 5.48915 4.15311 5.5087 4.12302 5.51913L3.30504 5.79179C3.12484 5.85173 2.9611 5.95286 2.82681 6.08715C2.69253 6.22144 2.5914 6.38518 2.53145 6.56538L2.25879 7.3823C2.24836 7.41239 2.22881 7.43849 2.20286 7.45695C2.17691 7.47542 2.14586 7.48534 2.11401 7.48534C2.08216 7.48534 2.0511 7.47542 2.02515 7.45695C1.9992 7.43849 1.97966 7.41239 1.96922 7.3823L1.69656 6.56432C1.57503 6.19866 1.28863 5.91227 0.922972 5.79073L0.106052 5.51913L0.104995 5.51913Z" fill="#0F0F0F"/>
</g>
<defs>
<clipPath id="clip0_391_7863">
<rect width="16.9091" height="16.9091" fill="white" transform="translate(0 17) rotate(-90)"/>
</clipPath>
</defs>
</svg>
